<?xml version="1.0" encoding="utf-8"?>
<!-- Generator: Adobe Illustrator 24.3.2, SVG Export Plug-In . SVG Version: 6.00 Build 0)  -->
<svg version="1.1" id="Camada_1" xmlns="http://www.w3.org/2000/svg" xmlns:xlink="http://www.w3.org/1999/xlink" x="0px" y="0px"
	 viewBox="0 0 538.58 56.69" style="enable-background:new 0 0 538.58 56.69;" xml:space="preserve">
<style type="text/css">
	.st0{fill:#FFFFFF;}
</style>
<g>
	<path class="st0" d="M49.28,19.4c0-7.06-5.78-12.04-15.88-12.04L6.61,7.12l0.08,9.16l28.32,0.24c2.18,0,3.27,1.32,3.27,2.82
		c0,1.6-1,3.01-3.27,3.01H6.51v34.12l10.91-11.57V31.3h15.93C43.5,31.3,49.28,26.5,49.28,19.4z"/>
	<path class="st0" d="M38.97,38.55h14.59l17.79-22.26c0,0,9.52,11.32,10.08,11.94c-1.18-0.11-4.85-0.11-6.64-0.11h-8.4l-8.08,10.43
		h44.41c0,0-31.45-38.48-31.45-38.49C71.27,0.06,38.97,38.55,38.97,38.55z"/>
	<path class="st0" d="M417.33,38.55h14.47l17.92-22.53c0,0,9.52,11.32,10.08,11.94c-1.18-0.11-4.85-0.11-6.64-0.11h-8.4l-7.84,10.71
		h44.28c0,0-31.57-38.75-31.58-38.76C449.63-0.22,417.33,38.55,417.33,38.55z"/>
	<path class="st0" d="M299.46,27.15l-14.7-19.88h-14.56c0,0,28.91,35.9,28.91,35.9c0,0,29.57-35.9,29.57-35.9h-14.04L299.46,27.15z"
		/>
	<polygon class="st0" points="439.44,7.34 397.41,7.34 337.75,7.27 337.75,7.27 330.69,7.27 330.69,38.55 341.21,38.55 
		341.21,15.92 360.06,15.81 360.31,44.9 370.51,38.55 370.63,15.81 387.48,15.81 391.97,15.81 401.33,15.81 401.45,44.9 
		411.77,38.55 411.89,15.81 431.97,15.81 	"/>
	<path class="st0" d="M517.8,29.99c4.54,0,7.3-3.71,7.3-11.92c0-9.04-7.37-11.44-16-10.73h-48.62l7.3,8.85l42.65,0.06
		c2.5,0,3.87,0.82,3.87,2.79c0,2.01-1.37,2.88-3.87,2.88h-27.55v14.15v2.49h10.52v-8.23l12.52-0.12l12.4,17.95l13.84,3.03
		C532.16,51.16,517.8,30,517.8,29.99z"/>
	<path class="st0" d="M234,7.5c-15.12,0-22.73,4.75-22.73,15.45c0,10.7,7.61,15.5,22.73,15.5c15.12,0,22.77-4.79,22.77-15.5
		C256.78,12.24,249.12,7.5,234,7.5z M234.05,30.11c-8.41,0-11.47-0.77-11.47-7.19c0-6.22,3.06-6.89,11.47-6.89
		c8.45,0,11.31,0.8,11.31,7.02C245.37,29.22,242.51,30.11,234.05,30.11z"/>
	<path class="st0" d="M135.27,22.47c2.09-0.82,3.96-2.74,3.96-6.35c0-5.66-5.13-8.79-12.42-8.79L80.73,7.4l7.25,8.83l39.44-0.01
		c0.8,0,2.03,0.46,2.03,1.55c0,1.28-1.07,1.46-2,1.46L90.52,19.3l5.88,7.19h14.73h2.15h14.16c1.65,0,2.15,0.46,2.15,1.42
		c0,1.1-0.67,1.51-2.13,1.51h-14.17h-2.15H98.79l7.47,9.13h20.89c9.74,0,12.7-4.2,12.7-9.36C139.85,25.62,137.9,23.29,135.27,22.47z
		"/>
	<polygon class="st0" points="151.06,7.34 141.59,7.34 141.59,29.14 141.59,38.61 174.31,38.61 174.31,29.14 151.06,29.14 	"/>
	<polygon class="st0" points="186.63,7.34 177.16,7.34 177.16,29.14 177.16,38.61 209.87,38.61 209.87,29.14 186.63,29.14 	"/>
</g>
</svg>
